<svg width="21" height="20" viewBox="0 0 21 20" fill="none" xmlns="http://www.w3.org/2000/svg">
<path id="Vector" d="M10.4992 0.5C11.0817 0.5 11.619 0.81808 11.9144 1.33973L20.7744 16.9469C21.0738 17.4728 21.0738 18.1217 20.7826 18.6475C20.4914 19.1734 19.9458 19.5 19.3592 19.5H1.63923C1.05266 19.5 0.507116 19.1734 0.215884 18.6475C-0.0753474 18.1217 -0.0712455 17.4685 0.224088 16.9469L9.0841 1.33973C9.37943 0.81808 9.91677 0.5 10.4992 0.5ZM10.4992 5.92857C9.95369 5.92857 9.51479 6.38237 9.51479 6.94643V11.6964C9.51479 12.2605 9.95369 12.7143 10.4992 12.7143C11.0448 12.7143 11.4837 12.2605 11.4837 11.6964V6.94643C11.4837 6.38237 11.0448 5.92857 10.4992 5.92857ZM11.8118 15.4286C11.8118 15.0686 11.6735 14.7234 11.4274 14.4689C11.1812 14.2144 10.8474 14.0714 10.4992 14.0714C10.1511 14.0714 9.81725 14.2144 9.57109 14.4689C9.32493 14.7234 9.18664 15.0686 9.18664 15.4286C9.18664 15.7885 9.32493 16.1337 9.57109 16.3882C9.81725 16.6427 10.1511 16.7857 10.4992 16.7857C10.8474 16.7857 11.1812 16.6427 11.4274 16.3882C11.6735 16.1337 11.8118 15.7885 11.8118 15.4286Z" fill="white"/>
</svg>
