<svg xmlns="http://www.w3.org/2000/svg" width="80" height="68" viewBox="0 0 80 68" fill="none">
  <g filter="url(#filter0_d_705_9496)">
    <path d="M27.5139 21.0528C28.4722 21.8236 28.625 23.2195 27.8611 24.1778C25.7222 26.8445 24.4444 30.2195 24.4444 33.9C24.4444 37.5806 25.7222 40.9556 27.8542 43.6222C28.625 44.5806 28.4653 45.9764 27.5069 46.7472C26.5486 47.5181 25.1528 47.3584 24.3819 46.4C21.6458 42.9764 20 38.6292 20 33.9C20 29.1709 21.6458 24.8236 24.3889 21.4C25.1597 20.4417 26.5556 20.2889 27.5139 21.0528ZM52.4931 21.0528C53.4514 20.282 54.8472 20.4417 55.6181 21.4C58.3542 24.8236 60 29.1709 60 33.9C60 38.6292 58.3542 42.9764 55.6111 46.4C54.8403 47.3584 53.4444 47.5111 52.4861 46.7472C51.5278 45.9834 51.375 44.5806 52.1389 43.6222C54.2708 40.9556 55.5486 37.5806 55.5486 33.9C55.5486 30.2195 54.2708 26.8445 52.1389 24.1778C51.3681 23.2195 51.5278 21.8236 52.4861 21.0528H52.4931ZM36.1111 33.9C36.1111 32.8686 36.5208 31.8795 37.2501 31.1502C37.9795 30.4208 38.9686 30.0111 40 30.0111C41.0314 30.0111 42.0206 30.4208 42.7499 31.1502C43.4792 31.8795 43.8889 32.8686 43.8889 33.9C43.8889 34.9314 43.4792 35.9206 42.7499 36.6499C42.0206 37.3792 41.0314 37.7889 40 37.7889C38.9686 37.7889 37.9795 37.3792 37.2501 36.6499C36.5208 35.9206 36.1111 34.9314 36.1111 33.9ZM34.2014 28.7125C32.9653 30.0875 32.2222 31.907 32.2222 33.9C32.2222 35.8931 32.9722 37.7056 34.2014 39.0875C35.0208 40.0042 34.9444 41.407 34.0278 42.2264C33.1111 43.0459 31.7083 42.9695 30.8889 42.0528C28.9583 39.8861 27.7778 37.032 27.7778 33.9C27.7778 30.7681 28.9583 27.9139 30.8889 25.7542C31.7083 24.8375 33.1111 24.7611 34.0278 25.5806C34.9444 26.4 35.0208 27.8028 34.2014 28.7195V28.7125ZM49.1111 25.7472C51.0417 27.9139 52.2222 30.7681 52.2222 33.9C52.2222 37.032 51.0417 39.8861 49.1111 42.0459C48.2917 42.9625 46.8889 43.0389 45.9722 42.2195C45.0556 41.4 44.9792 39.9972 45.7986 39.0806C47.0347 37.7056 47.7778 35.8861 47.7778 33.8931C47.7778 31.9 47.0278 30.0875 45.7986 28.7056C44.9792 27.7889 45.0556 26.3861 45.9722 25.5667C46.8889 24.7472 48.2917 24.8236 49.1111 25.7403V25.7472Z" fill="white"/>
  </g>
  <defs>
    <filter id="filter0_d_705_9496" x="0" y="-3.87781" width="80" height="75.5555" filterUnits="userSpaceOnUse" color-interpolation-filters="sRGB">
      <feFlood flood-opacity="0" result="BackgroundImageFix"/>
      <feColorMatrix in="SourceAlpha" type="matrix" values="0 0 0 0 0 0 0 0 0 0 0 0 0 0 0 0 0 0 127 0" result="hardAlpha"/>
      <feOffset/>
      <feGaussianBlur stdDeviation="10"/>
      <feComposite in2="hardAlpha" operator="out"/>
      <feColorMatrix type="matrix" values="0 0 0 0 1 0 0 0 0 1 0 0 0 0 1 0 0 0 0.15 0"/>
      <feBlend mode="normal" in2="BackgroundImageFix" result="effect1_dropShadow_705_9496"/>
      <feBlend mode="normal" in="SourceGraphic" in2="effect1_dropShadow_705_9496" result="shape"/>
    </filter>
  </defs>
</svg>